<?xml version="1.0" encoding="UTF-8" standalone="no"?>
<!DOCTYPE svg PUBLIC "-//W3C//DTD SVG 1.1//EN" "http://www.w3.org/Graphics/SVG/1.1/DTD/svg11.dtd">
<svg width="100%" height="100%" viewBox="0 0 908 692" version="1.1" xmlns="http://www.w3.org/2000/svg" xmlns:xlink="http://www.w3.org/1999/xlink" xml:space="preserve" xmlns:serif="http://www.serif.com/" style="fill-rule:evenodd;clip-rule:evenodd;">
    <g transform="matrix(1,0,0,1,-4349.21,-817.285)">
        <g transform="matrix(1,0,0,1,0.5,0.5)">
            <g transform="matrix(1,0,0,1,-0.5,-0.5)">
                <rect x="0" y="0" width="5922" height="3337" style="fill:#8f8f8f;"/>
            </g>
            <g transform="matrix(1,0,0,1,3.899,-12.0306)">
                <g>
                    <g>
                        <g id="cell-gythRNJaE8L_uZdejeKm-67">
                        </g>
                        <g>
                            <g id="cell-gythRNJaE8L_uZdejeKm-30">
                                <g>
                                    <circle cx="4785" cy="1153" r="71" style="fill:#fff;stroke:#000;stroke-width:3px;"/>
                                </g>
                                <g transform="matrix(1,0,0,1,4784.5,1157.5)">
                                    <g>
                                        <g>
                                            <text x="-11.117px" y="0px" style="font-family:'Helvetica';font-size:16px;">1...</text>
                                        </g>
                                    </g>
                                </g>
                            </g>
                        </g>
                        <g>
                            <g id="cell-BpaLnpxe32i0slQv463X-13">
                                <g>
                                    <path d="M4483.12,1153L4690.82,1153" style="fill:none;fill-rule:nonzero;stroke:#000;stroke-width:10px;stroke-miterlimit:10;"/>
                                    <path d="M4702.82,1153L4686.82,1161L4690.82,1153L4686.82,1145L4702.82,1153Z" style="fill-rule:nonzero;stroke:#000;stroke-width:10px;stroke-miterlimit:10;"/>
                                </g>
                            </g>
                        </g>
                        <g>
                            <g id="cell-BpaLnpxe32i0slQv463X-23">
                                <g>
                                    <path d="M4473.07,1188.03L4878.6,1441.08" style="fill:none;fill-rule:nonzero;stroke:#000;stroke-width:5px;stroke-miterlimit:10;"/>
                                    <path d="M4885.6,1445.45L4873.35,1444.29L4878.6,1441.08L4879.18,1434.96L4885.6,1445.45Z" style="fill-rule:nonzero;stroke:#000;stroke-width:5px;stroke-miterlimit:10;"/>
                                </g>
                            </g>
                        </g>
                        <g>
                            <g id="cell-BpaLnpxe32i0slQv463X-10">
                                <g>
                                    <circle cx="4417.06" cy="1153" r="66.06" style="fill:#fff;stroke:#000;stroke-width:3px;"/>
                                </g>
                                <g transform="matrix(1,0,0,1,4416.5,1157.5)">
                                    <g>
                                        <g>
                                            <text x="-11.117px" y="0px" style="font-family:'Helvetica';font-size:16px;">0...</text>
                                        </g>
                                    </g>
                                </g>
                            </g>
                        </g>
                        <g>
                            <g id="cell-BpaLnpxe32i0slQv463X-12">
                                <g>
                                    <circle cx="5145.5" cy="1266.5" r="44.5" style="fill:#fff;stroke:#000;stroke-width:3px;"/>
                                </g>
                                <g transform="matrix(1,0,0,1,5145.5,1270.5)">
                                    <g>
                                        <g>
                                            <text x="-11.117px" y="0px" style="font-family:'Helvetica';font-size:16px;">4...</text>
                                        </g>
                                    </g>
                                </g>
                            </g>
                        </g>
                        <g>
                            <g id="cell-BpaLnpxe32i0slQv463X-28">
                                <g>
                                    <path d="M4974.56,926.4L5133.9,1201.93" style="fill:none;fill-rule:nonzero;stroke:#000;stroke-width:10px;stroke-miterlimit:10;"/>
                                    <path d="M5139.9,1212.32L5124.97,1202.48L5133.9,1201.93L5138.82,1194.47L5139.9,1212.32Z" style="fill-rule:nonzero;stroke:#000;stroke-width:10px;stroke-miterlimit:10;"/>
                                </g>
                            </g>
                        </g>
                        <g>
                            <g id="cell-gythRNJaE8L_uZdejeKm-20">
                                <g>
                                    <path d="M4785,1224L4895.53,1415.46" style="fill:none;fill-rule:nonzero;stroke:#000;stroke-width:5px;stroke-miterlimit:10;"/>
                                    <path d="M4899.65,1422.61L4889.39,1415.83L4895.53,1415.46L4898.92,1410.33L4899.65,1422.61Z" style="fill-rule:nonzero;stroke:#000;stroke-width:5px;stroke-miterlimit:10;"/>
                                </g>
                            </g>
                            <g transform="matrix(1,0,0,1,4856.5,1350.5)">
                                <g id="cell-gythRNJaE8L_uZdejeKm-21">
                                    <g>
                                        <g>
                                            <g>
                                                <text x="-31.182px" y="0px" style="font-family:'Helvetica';font-size:11px;">Referencia...</text>
                                            </g>
                                        </g>
                                    </g>
                                </g>
                            </g>
                            <g transform="matrix(1,0,0,1,4579.5,1157.5)">
                                <g id="cell-gythRNJaE8L_uZdejeKm-29">
                                    <g>
                                        <g>
                                            <g>
                                                <text x="-47.469px" y="0px" style="font-family:'Helvetica';font-size:14px;">Contexto inicial</text>
                                            </g>
                                        </g>
                                    </g>
                                </g>
                            </g>
                            <g transform="matrix(1,0,0,1,4746.5,1359.5)">
                                <g id="cell-gythRNJaE8L_uZdejeKm-36">
                                    <g>
                                        <g>
                                            <g>
                                                <text x="-45.858px" y="0px" style="font-family:'Helvetica';font-size:11px;">aporta marco base</text>
                                            </g>
                                        </g>
                                    </g>
                                </g>
                            </g>
                        </g>
                        <g>
                            <g id="cell-BpaLnpxe32i0slQv463X-20">
                                <g>
                                    <rect x="4740" y="1180.5" width="101" height="26" style="fill:none;"/>
                                </g>
                                <g transform="matrix(1,0,0,1,4741.5,1195.5)">
                                    <g>
                                        <g>
                                            <g transform="matrix(7,0,0,7,8.94824,0)">
                                            </g>
                                            <g transform="matrix(7,0,0,7,10.8931,0)">
                                            </g>
                                            <text x="0px" y="0px" style="font-family:'Helvetica';font-size:7px;">Deﬁne importancia del input...</text>
                                        </g>
                                    </g>
                                </g>
                            </g>
                        </g>
                        <g>
                            <g id="cell-BpaLnpxe32i0slQv463X-24">
                                <g>
                                    <rect x="4739.5" y="1117" width="91" height="10" style="fill:none;"/>
                                </g>
                                <g transform="matrix(1,0,0,1,4784.5,1123.5)">
                                    <g>
                                        <g>
                                            <text x="-38.512px" y="0px" style="font-family:'Helvetica';font-size:7px;">INFO ingresa al sistema.</text>
                                        </g>
                                    </g>
                                </g>
                            </g>
                        </g>
                        <g>
                            <g id="cell-gythRNJaE8L_uZdejeKm-5">
                                <g>
                                    <path d="M4794.37,1080.72L4907.07,929.74" style="fill:none;fill-rule:nonzero;stroke:#000;stroke-width:5px;stroke-miterlimit:10;"/>
                                    <path d="M4912.01,923.13L4909.84,935.23L4907.07,929.74L4901.02,928.65L4912.01,923.13Z" style="fill-rule:nonzero;stroke:#000;stroke-width:5px;stroke-miterlimit:10;"/>
                                </g>
                            </g>
                        </g>
                        <g>
                            <g id="cell-gythRNJaE8L_uZdejeKm-14">
                                <g>
                                    <rect x="4859" y="1460" width="99" height="10" style="fill:none;"/>
                                </g>
                            </g>
                        </g>
                        <g>
                            <g id="cell-gythRNJaE8L_uZdejeKm-19">
                                <g>
                                    <path d="M4932.5,1415L4944.21,943.6" style="fill:none;fill-rule:nonzero;stroke:#000;stroke-width:4px;stroke-miterlimit:10;"/>
                                    <path d="M4944.4,936.1L4949.15,946.22L4944.21,943.6L4939.15,945.97L4944.4,936.1Z" style="fill-rule:nonzero;stroke:#000;stroke-width:4px;stroke-miterlimit:10;"/>
                                </g>
                            </g>
                        </g>
                        <g>
                            <g id="cell-gythRNJaE8L_uZdejeKm-23">
                                <g>
                                    <path d="M5114.03,1297.97L4984.09,1447.07" style="fill:none;fill-rule:nonzero;stroke:#000;stroke-width:5px;stroke-miterlimit:10;"/>
                                    <path d="M4978.67,1453.29L4981.75,1441.38L4984.09,1447.07L4990.05,1448.61L4978.67,1453.29Z" style="fill-rule:nonzero;stroke:#000;stroke-width:5px;stroke-miterlimit:10;"/>
                                </g>
                            </g>
                            <g transform="matrix(1,0,0,1,5059.5,1364.5)">
                                <g id="cell-gythRNJaE8L_uZdejeKm-24">
                                    <g>
                                        <g>
                                            <g>
                                                <text x="-48.004px" y="0px" style="font-family:'Helvetica';font-size:11px;">aprende del error<tspan x="35.78px 38.836px " y="0px 0px ">,.</tspan>..</text>
                                            </g>
                                        </g>
                                    </g>
                                </g>
                            </g>
                            <g transform="matrix(0.642788,-0.766044,0.766044,0.642788,4847.97,1016.31)">
                                <g id="cell-gythRNJaE8L_uZdejeKm-34">
                                    <g>
                                        <g>
                                            <g>
                                                <text x="-59.538px" y="0px" style="font-family:'Helvetica';font-size:14px;">Peso modula señal</text>
                                            </g>
                                        </g>
                                    </g>
                                </g>
                            </g>
                        </g>
                        <g transform="matrix(-3.82857e-16,-1,1,-3.82857e-16,4944.28,1091.37)">
                            <g id="cell-gythRNJaE8L_uZdejeKm-33">
                                <g>
                                    <g>
                                        <g>
                                            <text x="-60.31px" y="0px" style="font-family:'Helvetica';font-size:14px;">corrección aplicada</text>
                                        </g>
                                    </g>
                                </g>
                            </g>
                        </g>
                        <g transform="matrix(0.5,0.866025,-0.866025,0.5,5046.01,1062.83)">
                            <g id="cell-gythRNJaE8L_uZdejeKm-37">
                                <g>
                                    <g>
                                        <g>
                                            <g transform="matrix(14,0,0,14,-1.16211,0)">
                                            </g>
                                            <g transform="matrix(14,0,0,14,2.72754,0)">
                                            </g>
                                            <text x="-40.858px" y="0px" style="font-family:'Helvetica';font-size:14px;">Señal ﬁltrada</text>
                                        </g>
                                    </g>
                                </g>
                            </g>
                        </g>
                        <g>
                            <g id="cell-gythRNJaE8L_uZdejeKm-38">
                                <g>
                                    <path d="M5101,1266.5L4438.32,1220.53" style="fill:none;fill-rule:nonzero;stroke:#b85450;stroke-width:9px;stroke-miterlimit:10;stroke-dasharray:9,18;"/>
                                    <path d="M4427.1,1219.76L4442.58,1213.31L4438.32,1220.53L4441.54,1228.28L4427.1,1219.76Z" style="fill:#b85450;fill-rule:nonzero;stroke:#b85450;stroke-width:9px;stroke-miterlimit:10;"/>
                                </g>
                            </g>
                            <g transform="matrix(1,0,0,1,4659.5,1271.5)">
                                <g id="cell-gythRNJaE8L_uZdejeKm-39">
                                    <g>
                                        <g>
                                            <g>
                                                <g transform="matrix(23,0,0,23,-104.202,0)">
                                                </g>
                                                <g transform="matrix(23,0,0,23,-97.8118,0)">
                                                </g>
                                                <text x="-123.384px" y="0px" style="font-family:'Helvetica';font-size:23px;">Inﬂuye, actualiza estado</text>
                                            </g>
                                        </g>
                                    </g>
                                </g>
                            </g>
                        </g>
                        <g>
                            <g id="cell-gythRNJaE8L_uZdejeKm-41">
                                <g>
                                    <circle cx="4932.5" cy="1457.5" r="42.5" style="fill:#fff;stroke:#000;stroke-width:3px;"/>
                                </g>
                                <g transform="matrix(1,0,0,1,4932.5,1461.5)">
                                    <g>
                                        <g>
                                            <text x="-11.117px" y="0px" style="font-family:'Helvetica';font-size:16px;">2...</text>
                                        </g>
                                    </g>
                                </g>
                            </g>
                        </g>
                        <g>
                            <g id="cell-gythRNJaE8L_uZdejeKm-43">
                                <g>
                                    <circle cx="4950" cy="884" r="49" style="fill:#fff;stroke:#000;stroke-width:3px;"/>
                                </g>
                                <g transform="matrix(1,0,0,1,4949.5,888.5)">
                                    <g>
                                        <g>
                                            <text x="-11.117px" y="0px" style="font-family:'Helvetica';font-size:16px;">3...</text>
                                        </g>
                                    </g>
                                </g>
                            </g>
                        </g>
                        <g>
                            <g id="cell-gythRNJaE8L_uZdejeKm-45">
                                <g>
                                    <path d="M4761,1069.25L4761,1079.75C4761,1080.99 4759.99,1082 4758.75,1082L4701.25,1082C4700.01,1082 4699,1080.99 4699,1079.75L4699,1069.25C4699,1068.01 4700.01,1067 4701.25,1067L4758.75,1067C4759.99,1067 4761,1068.01 4761,1069.25Z" style="fill:#fff;"/>
                                </g>
                                <g transform="matrix(1,0,0,1,4729.5,1076.5)">
                                    <g>
                                        <g>
                                            <text x="-25.881px" y="0px" style="font-family:'Helvetica';font-size:7px;">Ingesta de datos</text>
                                        </g>
                                    </g>
                                </g>
                            </g>
                        </g>
                        <g>
                            <g id="cell-gythRNJaE8L_uZdejeKm-52">
                                <g>
                                    <path d="M4859,1298.25L4859,1308.75C4859,1309.99 4857.99,1311 4856.75,1311L4799.25,1311C4798.01,1311 4797,1309.99 4797,1308.75L4797,1298.25C4797,1297.01 4798.01,1296 4799.25,1296L4856.75,1296C4857.99,1296 4859,1297.01 4859,1298.25Z" style="fill:#fff;"/>
                                </g>
                                <g transform="matrix(1,0,0,1,4827.5,1305.5)">
                                    <g>
                                        <g>
                                            <text x="-20.234px" y="0px" style="font-family:'Helvetica';font-size:7px;">T<tspan x="-16.734px -12.841px " y="0px 0px ">ok</tspan>enización</text>
                                        </g>
                                    </g>
                                </g>
                            </g>
                        </g>
                        <g>
                            <g id="cell-gythRNJaE8L_uZdejeKm-53">
                                <g>
                                    <path d="M4963,1507.25L4963,1517.75C4963,1518.99 4961.99,1520 4960.75,1520L4903.25,1520C4902.01,1520 4901,1518.99 4901,1517.75L4901,1507.25C4901,1506.01 4902.01,1505 4903.25,1505L4960.75,1505C4961.99,1505 4963,1506.01 4963,1507.25Z" style="fill:#fff;"/>
                                </g>
                                <g transform="matrix(1,0,0,1,4931.5,1514.5)">
                                    <g>
                                        <g>
                                            <text x="-19.457px" y="0px" style="font-family:'Helvetica';font-size:7px;">Embeddings</text>
                                        </g>
                                    </g>
                                </g>
                            </g>
                        </g>
                        <g>
                            <g id="cell-gythRNJaE8L_uZdejeKm-54">
                                <g>
                                    <path d="M5078,835.75L5078,846.25C5078,847.492 5076.99,848.5 5075.75,848.5L4996.25,848.5C4995.01,848.5 4994,847.492 4994,846.25L4994,835.75C4994,834.508 4995.01,833.5 4996.25,833.5L5075.75,833.5C5076.99,833.5 5078,834.508 5078,835.75Z" style="fill:#fff;"/>
                                </g>
                                <g transform="matrix(1,0,0,1,5035.5,842.5)">
                                    <g>
                                        <g>
                                            <text x="-35.152px" y="0px" style="font-family:'Helvetica';font-size:7px;">Ajuste de <tspan x="-4.144px -0.644px 3.249px " y="0px 0px 0px ">Tem</tspan>peratura</text>
                                        </g>
                                    </g>
                                </g>
                            </g>
                        </g>
                        <g>
                            <g id="cell-gythRNJaE8L_uZdejeKm-56">
                                <g transform="matrix(0.707107,-0.707107,0.707107,0.707107,720.942,3703.51)">
                                    <path d="M4874,976.25L4874,986.75C4874,987.992 4872.99,989 4871.75,989L4790.25,989C4789.01,989 4788,987.992 4788,986.75L4788,976.25C4788,975.008 4789.01,974 4790.25,974L4871.75,974C4872.99,974 4874,975.008 4874,976.25Z" style="fill:#fff;"/>
                                </g>
                                <g transform="matrix(0.707107,-0.707107,0.707107,0.707107,4832.27,982.768)">
                                    <g>
                                        <g>
                                            <text x="-37.352px" y="0px" style="font-family:'Helvetica';font-size:7px;">Multiplicación por pesos</text>
                                        </g>
                                    </g>
                                </g>
                            </g>
                        </g>
                        <g>
                            <g id="cell-gythRNJaE8L_uZdejeKm-57">
                                <g>
                                    <path d="M5118,1322.25L5118,1332.75C5118,1333.99 5116.99,1335 5115.75,1335L5058.25,1335C5057.01,1335 5056,1333.99 5056,1332.75L5056,1322.25C5056,1321.01 5057.01,1320 5058.25,1320L5115.75,1320C5116.99,1320 5118,1321.01 5118,1322.25Z" style="fill:#fff;"/>
                                </g>
                                <g transform="matrix(1,0,0,1,5086.5,1329.5)">
                                    <g>
                                        <g>
                                            <text x="-26.269px" y="0px" style="font-family:'Helvetica';font-size:7px;">Backpropagation</text>
                                        </g>
                                    </g>
                                </g>
                            </g>
                        </g>
                        <g>
                            <g id="cell-gythRNJaE8L_uZdejeKm-59">
                                <g>
                                    <path d="M4448.06,1100.13L4448.06,1110.63C4448.06,1111.87 4447.05,1112.88 4445.81,1112.88L4388.31,1112.88C4387.07,1112.88 4386.06,1111.87 4386.06,1110.63L4386.06,1100.13C4386.06,1098.89 4387.07,1097.88 4388.31,1097.88L4445.81,1097.88C4447.05,1097.88 4448.06,1098.89 4448.06,1100.13Z" style="fill:#fff;"/>
                                </g>
                                <g transform="matrix(1,0,0,1,4416.5,1106.5)">
                                    <g>
                                        <g>
                                            <text x="-19.064px" y="0px" style="font-family:'Helvetica';font-size:7px;">Persistencia</text>
                                        </g>
                                    </g>
                                </g>
                            </g>
                        </g>
                        <g>
                            <g id="cell-gythRNJaE8L_uZdejeKm-62">
                                <g>
                                    <path d="M5145,1033.25L5145,1043.75C5145,1044.99 5143.99,1046 5142.75,1046L5063.25,1046C5062.01,1046 5061,1044.99 5061,1043.75L5061,1033.25C5061,1032.01 5062.01,1031 5063.25,1031L5142.75,1031C5143.99,1031 5145,1032.01 5145,1033.25Z" style="fill:#fff;"/>
                                </g>
                                <g transform="matrix(1,0,0,1,5102.5,1040.5)">
                                    <g>
                                        <g>
                                            <text x="-29.377px" y="0px" style="font-family:'Helvetica';font-size:7px;">Decisión de la Red</text>
                                        </g>
                                    </g>
                                </g>
                            </g>
                        </g>
                        <g>
                            <g id="cell-gythRNJaE8L_uZdejeKm-65">
                                <g>
                                    <path d="M5252,1264.25L5252,1274.75C5252,1275.99 5250.99,1277 5249.75,1277L5200.25,1277C5199.01,1277 5198,1275.99 5198,1274.75L5198,1264.25C5198,1263.01 5199.01,1262 5200.25,1262L5249.75,1262C5250.99,1262 5252,1263.01 5252,1264.25Z" style="fill:#fff;"/>
                                </g>
                                <g transform="matrix(1,0,0,1,5224.5,1271.5)">
                                    <g>
                                        <g>
                                            <text x="-27.627px" y="0px" style="font-family:'Helvetica';font-size:7px;">Generación de l...</text>
                                        </g>
                                    </g>
                                </g>
                            </g>
                        </g>
                        <g>
                            <g id="cell-gythRNJaE8L_uZdejeKm-66">
                                <g>
                                    <path d="M5056,1238.25L5056,1248.75C5056,1249.99 5054.99,1251 5053.75,1251L4996.25,1251C4995.01,1251 4994,1249.99 4994,1248.75L4994,1238.25C4994,1237.01 4995.01,1236 4996.25,1236L5053.75,1236C5054.99,1236 5056,1237.01 5056,1238.25Z" style="fill:#fff;"/>
                                </g>
                                <g transform="matrix(1,0,0,1,5024.5,1245.5)">
                                    <g>
                                        <g>
                                            <text x="-31.126px" y="0px" style="font-family:'Helvetica';font-size:7px;">Retroalimentación...</text>
                                        </g>
                                    </g>
                                </g>
                            </g>
                        </g>
                    </g>
                </g>
            </g>
        </g>
    </g>
</svg>
